<svg viewBox="0 0 200 200" xmlns="http://www.w3.org/2000/svg">
  <!-- Background circle -->
  <circle cx="100" cy="100" r="90" fill="none" stroke="#FFF3E0" stroke-width="2"/>

  <!-- Checklist -->
  <g transform="translate(100, 100)">
    <!-- Clipboard -->
    <rect x="-30" y="-40" width="60" height="80" fill="none" stroke="#FF9800" stroke-width="2" rx="4"/>

    <!-- Clipboard header -->
    <rect x="-30" y="-40" width="60" height="12" fill="#FF9800" opacity="0.15" rx="4 4 0 0"/>
    <circle cx="-18" cy="-34" r="2" fill="#FF9800"/>
    <text x="-10" y="-30" font-family="Arial" font-size="8" font-weight="bold" fill="#FF9800">Checklist</text>

    <!-- Checkboxes -->
    <!-- Item 1 - checked -->
    <rect x="-25" y="-20" width="8" height="8" fill="none" stroke="#4CAF50" stroke-width="1.5" rx="1"/>
    <path d="M -22 -17 L -20 -15 L -16 -19" stroke="#4CAF50" stroke-width="1.5" fill="none" stroke-linecap="round" stroke-linejoin="round"/>
    <line x1="-13" y1="-17" x2="18" y2="-17" stroke="#FF9800" stroke-width="1" opacity="0.6"/>

    <!-- Item 2 - checked -->
    <rect x="-25" y="-7" width="8" height="8" fill="none" stroke="#4CAF50" stroke-width="1.5" rx="1"/>
    <path d="M -22 -4 L -20 -2 L -16 -6" stroke="#4CAF50" stroke-width="1.5" fill="none" stroke-linecap="round" stroke-linejoin="round"/>
    <line x1="-13" y1="-4" x2="18" y2="-4" stroke="#FF9800" stroke-width="1" opacity="0.6"/>

    <!-- Item 3 - unchecked -->
    <rect x="-25" y="6" width="8" height="8" fill="none" stroke="#BDBDBD" stroke-width="1.5" rx="1"/>
    <line x1="-13" y1="10" x2="18" y2="10" stroke="#FF9800" stroke-width="1" opacity="0.6"/>

    <!-- Item 4 - unchecked -->
    <rect x="-25" y="19" width="8" height="8" fill="none" stroke="#BDBDBD" stroke-width="1.5" rx="1"/>
    <line x1="-13" y1="23" x2="18" y2="23" stroke="#FF9800" stroke-width="1" opacity="0.6"/>

    <!-- Progress indicator -->
    <text x="-8" y="35" font-family="Arial" font-size="7" font-weight="bold" fill="#FF9800">50% complete</text>
  </g>
</svg>