<?xml version="1.0" encoding="UTF-8" standalone="no"?>
<!-- Created with Inkscape (http://www.inkscape.org/) -->

<svg
   version="1.1"
   id="svg1"
   width="120"
   height="153.46315"
   viewBox="0 0 600.00002 767.31574"
   xmlns="http://www.w3.org/2000/svg"
   xmlns:svg="http://www.w3.org/2000/svg">
  <defs
     id="defs1" />
  <path
     id="path3"
     style="fill:#000000;stroke-width:0.317843"
     d="M 301,0 0,192 V 576 L 235,726 c 0,-0 0,-0 0,-1 1,-3 1,-3 1,-4 -3,-3 -3,-6 0,-12 2,-4 2,-4 1,-7 -0,-2 -1,-4 -1,-5 0,-1 -1,-1 -3,0 -3,3 -7,2 -11,-1 -3,-2 -3,-2 -3,0 -0,9 -12,11 -19,3 -5,-6 -7,-16 -6,-27 0,-3 0,-4 -1,-5 -3,-4 3,-20 7,-20 2,0 2,0 3,-4 3,-11 16,-36 24,-46 3,-3 3,-5 1,-5 -2,0 -15,-5 -23,-8 -37,-16 -68,-43 -83,-75 -4,-7 -4,-7 -6,-8 -16,-3 -35,-23 -38,-43 -5,-29 12,-62 33,-67 1,-0 2,-1 3,-5 9,-32 23,-57 49,-82 6,-6 6,-6 3,-11 -8,-12 -18,-18 -23,-14 -24,18 -54,-12 -36,-36 15,-19 47,-8 45,16 0,3 -0,3 5,5 9,4 18,12 24,21 2,3 2,3 4,1 17,-13 56,-30 76,-32 1,0 3,-0 3,-0 0,0 3,-0 5,-1 55,-7 103,4 144,33 3,2 5,3 5,3 0,0 2,-2 3,-5 6,-9 17,-18 24,-20 3,-1 3,-1 3,-5 1,-30 43,-35 50,-6 5,25 -21,41 -41,26 -4,-3 -4,-3 -7,-1 -8,5 -14,10 -17,16 -3,4 -3,4 5,12 23,23 36,46 45,76 3,8 3,9 4,9 27,4 43,50 28,82 -6,13 -20,25 -33,28 -3,0 -3,1 -4,4 -18,38 -56,70 -102,84 -4,1 -8,3 -8,3 0,0 3,4 5,8 8,13 18,33 21,45 0,0 1,1 2,1 4,0 10,19 7,21 -1,0 -1,1 -0,5 2,12 -0,20 -6,27 -8,8 -17,7 -19,-3 -0,-3 -0,-3 -3,-0 -4,3 -8,3 -11,0 -3,-2 -3,-2 -3,1 0,2 -0,4 -0,5 -0,2 -0,3 1,6 3,5 3,8 1,11 -1,3 -1,3 0,5 0,0 0,0 0,1 L 600,575 V 192 Z m 0,704 c -6,0 -7,1 -9,11 -1,5 -2,8 -3,10 -1,1 -1,1 1,4 2,4 2,6 -0,10 -1,3 -1,3 -1,10 0,5 0,8 -0,10 l 14,9 14,-9 c -0,-3 -1,-8 -1,-12 0,-5 0,-6 -2,-9 -3,-4 -3,-8 0,-10 2,-2 2,-2 0,-3 -2,-2 -3,-4 -5,-11 -3,-10 -2,-10 -8,-10 z" />
</svg>
