<svg xmlns="http://www.w3.org/2000/svg" viewBox="120 110 400 290" fill="currentColor">
  <path id="c" d="m 324 138
c -9 -1 -7 -2 -54 26
  -15 9 -27 15 -34 20
  -12 9 -10 13 -10 27
  -0 10 -2 16 6 21
  20 14 26 14 53 31
  55 33 53 34 43 40
  -7 4 -12 5 -18 1
  -3 -2 -15 -9 -27 -16
  -12 -7 -31 -19 -43 -26
  -34 -21 -34 -20 -34 -52
  -0 -12 -1 -18 3 -28
  4 -9 12 -13 45 -32
  2 -1 16 -10 30 -18
l 22 -13
c 7 -5 16 -6 24 -2
l 26 16
c 80 49 76 45 76 68
  -0 14 2 16 -11 8
l -8 -5
c 0 0 3 -12 -6 -17"/>
  <use href="#c" transform="translate(640 510) scale(-1 -1)"/>
</svg>
