<?xml version="1.0" encoding="UTF-8" standalone="no"?>
<!-- Created with Inkscape (http://www.inkscape.org/) -->

<svg
   version="1.1"
   id="svg1"
   width="678.08911"
   height="721.06573"
   viewBox="0 0 678.08914 721.06574"
   xmlns="http://www.w3.org/2000/svg"
   xmlns:svg="http://www.w3.org/2000/svg">
  <defs
     id="defs1" />
  <g
     id="g1"
     transform="translate(-195.33332,-124.10831)">
    <path
       style="fill:#b2ccd6"
       d="M 195,845 C 355,675 521,512 689,350 614,433 535,514 461,599 c -40,45 -83,89 -124,133 25,29 69,22 101,38 117,35 253,-12 324,-112 52,-68 77,-158 61,-243 13,35 13,75 11,113 -11,129 -111,244 -237,273 -94,24 -198,-2 -272,-65 -26,9 -50,39 -74,58 -19,16 -37,36 -56,50 z M 276,687 C 200,598 183,463 238,359 292,248 415,178 538,186 c 63,3 125,27 175,66 -143,145 -290,287 -432,434 0,1 -3,5 -5,2 z M 677,322 C 740,253 805,186 873,124 811,193 745,259 677,322 Z"
       id="path1" />
  </g>
</svg>
