<svg xmlns="http://www.w3.org/2000/svg" version="1.1" xmlns:xlink="http://www.w3.org/1999/xlink" xmlns:svgjs="http://svgjs.dev/svgjs" width="1442.9883" height="1839.168"><svg version="1.1" id="SvgjsSvg1108" width="1442.9883" height="1839.168" viewBox="0 0 1442.9883 1839.168" sodipodi:docname="sinra-logo.svg" inkscape:version="1.4 (e7c3feb1, 2024-10-09)" xmlns:inkscape="http://www.inkscape.org/namespaces/inkscape" xmlns:sodipodi="http://sodipodi.sourceforge.net/DTD/sodipodi-0.dtd" xmlns="http://www.w3.org/2000/svg" xmlns:svg="http://www.w3.org/2000/svg">
  <defs id="SvgjsDefs1107"></defs>
  <sodipodi:namedview id="SvgjsSodipodi:namedview1106" pagecolor="#505050" bordercolor="#ffffff" borderopacity="1" inkscape:showpageshadow="0" inkscape:pageopacity="0" inkscape:pagecheckerboard="1" inkscape:deskcolor="#505050" inkscape:zoom="0.18926873" inkscape:cx="-1511.079" inkscape:cy="1109.5335" inkscape:window-width="2560" inkscape:window-height="1387" inkscape:window-x="0" inkscape:window-y="25" inkscape:window-maximized="0" inkscape:current-layer="svg1" showguides="true">
    <sodipodi:guide position="721.56875,880.19378" orientation="1,0" id="SvgjsSodipodi:guide1105" inkscape:locked="false"></sodipodi:guide>
    <sodipodi:guide position="1486.4676,755.61742" orientation="0,-1" id="SvgjsSodipodi:guide1104" inkscape:locked="false"></sodipodi:guide>
  </sodipodi:namedview>
  <path id="SvgjsPath1103" style="fill:#000000;stroke-width:0.761764" d="M 721.49414,0 0,459.79102 v 919.58588 l 563.77343,359.2794 c 0.31636,-0.6383 0.49872,-1.2183 0.87891,-1.8946 3.3393,-5.9404 3.45602,-6.6292 1.50196,-8.8633 -6.40661,-7.3249 -6.13416,-14.881 1.04296,-28.8535 4.67349,-9.0984 4.67449,-9.0977 2.58789,-17.418 -1.14763,-4.576 -2.08788,-9.3318 -2.08788,-10.5683 0,-2.9244 -2.07033,-2.8477 -6.45899,0.2422 -7.87055,5.5412 -15.89598,4.6354 -25.82032,-2.918 -5.72043,-4.3538 -5.7193,-4.3555 -5.98632,1.3067 -1.01595,21.5423 -28.73875,25.6066 -45.38086,6.6523 -12.00516,-13.6731 -17.32405,-38.5632 -13.6582,-63.916 1.202,-8.3129 1.07611,-9.3699 -1.5586,-12.9336 -6.33836,-8.5731 7.36978,-47.0415 17.01563,-47.75 5.44917,-0.4002 5.44766,-0.3996 7.72852,-8.666 7.25023,-26.277 38.42569,-87.0195 57.12304,-111.3008 6.48283,-8.4189 7.00988,-10.9648 2.27149,-10.9648 -3.62921,0 -37.03112,-12.1457 -56.3418,-20.4864 -88.07634,-38.0416 -161.90844,-104.2178 -199.52149,-178.832 -8.74376,-17.3453 -8.74515,-17.3448 -14.9707,-18.2207 -39.47202,-5.5536 -83.11703,-54.803 -91.66797,-103.4395 -12.20848,-69.4401 27.82762,-149.25014 80.07813,-159.63279 3.13569,-0.62308 3.83881,-1.88782 6.47461,-11.65624 20.78675,-77.03675 56.1005,-136.29581 116.89648,-196.15821 15.14169,-14.90919 15.14072,-14.90918 7.20703,-27.01367 -19.11679,-29.16665 -42.78611,-43.66057 -55.53711,-34.00781 -57.02711,43.17064 -129.40156,-28.64343 -86.55664,-85.88672 34.52056,-46.12146 111.91642,-19.15477 108.43945,37.78321 -0.49244,8.06411 -1.05502,7.43417 11.5586,12.95312 21.16149,9.25896 42.08572,27.86049 57.28711,50.92969 4.43087,6.72417 3.79069,6.60126 9.85547,1.9082 40.70031,-31.49473 134.97191,-71.26184 182.06835,-76.80078 3.4801,-0.40929 6.73114,-0.98974 7.22462,-1.29102 0.49347,-0.30128 6.29843,-1.19637 12.89843,-1.99023 132.49196,-15.93646 247.79708,10.1567 345.11326,78.0996 5.74555,4.01132 10.60461,7.09496 10.79891,6.85157 0.1942,-0.24339 3.5459,-5.24271 7.4472,-11.10937 13.7731,-20.71175 40.9859,-43.4075 58.1601,-48.50587 7.4443,-2.20986 7.4444,-2.21105 7.8321,-11.86328 2.9181,-72.64176 103.8685,-84.07374 119.9024,-13.57812 13.3139,58.53732 -50.5374,98.9829 -98.7071,62.52344 -8.5646,-6.48255 -8.564,-6.48269 -16.8886,-1.64063 -18.7341,10.8966 -33.2772,24.79082 -40.8829,39.06055 -5.5299,10.37513 -6.3003,8.73476 13.3613,28.46875 53.7101,53.90791 87.3972,110.12763 109.1739,182.20117 5.6543,18.71406 6.5489,20.70993 9.4629,21.13476 64.8528,9.4551 102.9682,121.24258 66.6758,195.54688 -15.4311,31.593 -49.0695,59.8701 -80.0684,67.3066 -5.9848,1.4357 -6.4994,1.9299 -10.1738,9.7618 -42.641,90.8869 -134.508,166.9815 -244.20707,202.2812 -9.71667,3.1267 -17.66796,6.0709 -17.66796,6.543 0,0.472 5.51396,9.2374 12.25195,19.4765 19.82406,30.1248 43.86003,80.3277 51.20507,106.9493 0.25532,0.9252 2.52158,1.6659 5.09379,1.6659 9.36724,0 25.20132,45.9819 17.34765,50.377 -1.83071,1.0245 -1.91612,2.5084 -0.66604,11.4961 4.01917,28.8974 -0.60913,49.2466 -14.55667,63.9942 -17.92544,18.9535 -41.12304,16.0793 -44.65037,-5.5332 -1.10441,-6.7671 -0.53275,-6.6625 -7.93163,-1.4473 -8.97061,6.323 -18.16155,6.763 -25.74805,1.2344 -7.22436,-5.2648 -7.00659,-5.354 -7.04492,2.8788 -0.0179,3.8501 -0.63201,9.6018 -1.36524,12.7813 -1.2259,5.3159 -0.95387,6.5231 3.36719,15.002 5.52231,10.8359 6.01895,17.6127 1.89843,25.8633 -2.7995,5.6054 -2.7995,5.6057 -0.11132,10.8749 0.35893,0.7036 0.55029,1.3209 0.85546,1.9942 L 1442.9883,1379.3769 V 459.79102 Z m -0.49024,1686.8105 c -13.66845,0 -15.56961,2.513 -20.6621,27.332 -2.34713,11.4391 -5.2955,19.6584 -8.22461,22.9219 -1.82439,2.0328 -1.66669,2.9881 1.59765,9.6602 4.27012,8.7278 3.89569,15.4249 -1.42187,25.4258 -2.95028,5.5487 -3.26172,7.6967 -3.26172,22.543 0,11.4179 -0.32782,18.5734 -1.06641,23.1074 l 33.5293,21.3672 33.67969,-21.4629 c -1.11833,-6.8677 -2.07106,-18.3816 -2.10157,-28.3496 -0.0379,-12.3889 -0.35446,-14.0239 -4.01562,-20.666 -5.76144,-10.4526 -5.57927,-17.9855 0.58398,-24.0117 4.60966,-4.5071 4.61044,-4.5087 1.48633,-7.8555 -4.89354,-5.2425 -6.97043,-10.377 -10.54687,-26.0801 -5.58461,-24.5203 -5.10459,-23.9317 -19.57618,-23.9317 z"></path>
</svg><style>@media (prefers-color-scheme: light) { :root { filter: none; } }
@media (prefers-color-scheme: dark) { :root { filter: none; } }
</style></svg>