<svg xmlns="http://www.w3.org/2000/svg" viewBox="0 0 1200 630">
  <defs>
    <linearGradient id="bg" x1="0%" y1="0%" x2="100%" y2="100%">
      <stop offset="0%" style="stop-color:#1e2235;stop-opacity:1" />
      <stop offset="55%" style="stop-color:#171b2b;stop-opacity:1" />
      <stop offset="100%" style="stop-color:#111520;stop-opacity:1" />
    </linearGradient>
    <linearGradient id="band" x1="0%" y1="0%" x2="0%" y2="100%">
      <stop offset="0%" style="stop-color:#0a0f1a;stop-opacity:0.4" />
      <stop offset="100%" style="stop-color:#0a0f1a;stop-opacity:0.92" />
    </linearGradient>
  </defs>
  <rect width="1200" height="630" fill="url(#bg)"/>
  <g stroke="#2a3350" stroke-width="1" opacity="0.25">
    <line x1="0" y1="126" x2="1200" y2="126"/>
    <line x1="1000" y1="0" x2="1000" y2="630"/>
  </g>
  <circle cx="1080" cy="150" r="120" fill="#a6f079" opacity="0.06"/>
  <rect x="0" y="70" width="1200" height="3" fill="#a6f079" opacity="0.55"/>
  <rect x="0" y="70" width="340" height="3" fill="#a6f079"/>

  <!-- messy spreadsheet grid -->
  <rect x="340" y="140" width="520" height="260" rx="6" fill="#1a1a24" stroke="#e0a45c" stroke-width="1.3" opacity="0.7"/>
  <g stroke="#3a3a4a" stroke-width="1">
    <line x1="340" y1="180" x2="860" y2="180"/>
    <line x1="340" y1="220" x2="860" y2="220"/>
    <line x1="340" y1="260" x2="860" y2="260"/>
    <line x1="340" y1="300" x2="860" y2="300"/>
    <line x1="340" y1="340" x2="860" y2="340"/>
    <line x1="470" y1="140" x2="470" y2="400"/>
    <line x1="600" y1="140" x2="600" y2="400"/>
    <line x1="730" y1="140" x2="730" y2="400"/>
  </g>
  <text x="600" y="165" font-family="monospace" font-size="13" fill="#e0a45c" text-anchor="middle">QA_tests_v4_final_vraiment_final.xlsx</text>
  <text x="470" y="240" font-family="monospace" font-size="12" fill="#8b7a5c" text-anchor="middle">encore valide ?</text>
  <text x="600" y="280" font-family="monospace" font-size="12" fill="#8b7a5c" text-anchor="middle">qui a testé ?</text>
  <text x="730" y="320" font-family="monospace" font-size="12" fill="#8b7a5c" text-anchor="middle">quelle version ?</text>

  <rect x="0" y="446" width="1200" height="184" fill="url(#band)"/>
  <rect x="0" y="446" width="1200" height="2" fill="#a6f079" opacity="0.55"/>
  <text x="600" y="500" font-family="Arial, sans-serif" font-size="38" font-weight="bold" text-anchor="middle" fill="#e0e8ff">Suivi QA sans Excel</text>
  <text x="600" y="548" font-family="Arial, sans-serif" font-size="22" text-anchor="middle" fill="#c792e9">Organiser ses testings efficacement</text>
  <text x="1150" y="614" font-family="Arial, sans-serif" font-size="16" font-weight="bold" text-anchor="end" fill="#a6f079" opacity="0.7">sinra.app</text>
</svg>
