<svg xmlns="http://www.w3.org/2000/svg" viewBox="0 0 1200 630">
  <defs>
    <linearGradient id="bg" x1="0%" y1="0%" x2="100%" y2="100%">
      <stop offset="0%" style="stop-color:#1e2235;stop-opacity:1" />
      <stop offset="55%" style="stop-color:#171b2b;stop-opacity:1" />
      <stop offset="100%" style="stop-color:#111520;stop-opacity:1" />
    </linearGradient>
    <linearGradient id="band" x1="0%" y1="0%" x2="0%" y2="100%">
      <stop offset="0%" style="stop-color:#0a0f1a;stop-opacity:0.4" />
      <stop offset="100%" style="stop-color:#0a0f1a;stop-opacity:0.92" />
    </linearGradient>
  </defs>
  <rect width="1200" height="630" fill="url(#bg)"/>
  <g stroke="#2a3350" stroke-width="1" opacity="0.25">
    <line x1="0" y1="126" x2="1200" y2="126"/>
    <line x1="1000" y1="0" x2="1000" y2="630"/>
  </g>
  <circle cx="1080" cy="150" r="120" fill="#a6f079" opacity="0.06"/>
  <rect x="0" y="70" width="1200" height="3" fill="#a6f079" opacity="0.55"/>
  <rect x="0" y="70" width="340" height="3" fill="#a6f079"/>

  <rect x="330" y="140" width="540" height="250" rx="10" fill="#0d1220" stroke="#a6f079" stroke-width="2" opacity="0.9"/>
  <g font-family="monospace" font-size="18" fill="#a6f079">
    <text x="365" y="185">☑ capabilities livrées</text>
    <text x="365" y="223">☑ testings validés</text>
    <text x="365" y="261">☑ dépendances résolues</text>
    <text x="365" y="299">☐ 0 issue bloquante</text>
  </g>
  <line x1="330" y1="330" x2="870" y2="330" stroke="#a6f079" stroke-width="0.5" opacity="0.3"/>
  <text x="600" y="365" font-family="monospace" font-size="15" fill="#8b9cbf" text-anchor="middle">4 critères vérifiables, pas une impression</text>

  <rect x="0" y="446" width="1200" height="184" fill="url(#band)"/>
  <rect x="0" y="446" width="1200" height="2" fill="#a6f079" opacity="0.55"/>
  <text x="600" y="500" font-family="Arial, sans-serif" font-size="36" font-weight="bold" text-anchor="middle" fill="#e0e8ff">Une Release Est-Elle Prête à Sortir ?</text>
  <text x="600" y="548" font-family="Arial, sans-serif" font-size="22" text-anchor="middle" fill="#c792e9">La checklist, pas l'impression collective</text>
  <text x="1150" y="614" font-family="Arial, sans-serif" font-size="16" font-weight="bold" text-anchor="end" fill="#a6f079" opacity="0.7">sinra.app</text>
</svg>
