<svg xmlns="http://www.w3.org/2000/svg" viewBox="0 0 1200 630">
  <defs>
    <linearGradient id="bg" x1="0%" y1="0%" x2="100%" y2="100%">
      <stop offset="0%" style="stop-color:#1a1f35;stop-opacity:1"/>
      <stop offset="100%" style="stop-color:#0f1320;stop-opacity:1"/>
    </linearGradient>
  </defs>
  <rect width="1200" height="630" fill="url(#bg)"/>
  <pattern id="grid" width="40" height="40" patternUnits="userSpaceOnUse">
    <path d="M 40 0 L 0 0 0 40" fill="none" stroke="#8b9cbf" stroke-width="0.3" opacity="0.05"/>
  </pattern>
  <rect width="1200" height="630" fill="url(#grid)"/>

  <!-- Left panel: Sync by default (bad) -->
  <rect x="50" y="80" width="480" height="430" rx="12" fill="#1e1a28" stroke="#ff6b6b" stroke-width="1.5" opacity="0.7"/>
  <text x="290" y="116" font-family="monospace" font-size="13" fill="#ff6b6b" text-anchor="middle">SYNCHRONE PAR DÉFAUT</text>
  <line x1="70" y1="128" x2="510" y2="128" stroke="#ff6b6b" stroke-width="0.5" opacity="0.3"/>

  <!-- Calendar filled with meetings -->
  <!-- Day header -->
  <text x="90" y="158" font-family="monospace" font-size="10" fill="#5a3040">LUN</text>
  <text x="170" y="158" font-family="monospace" font-size="10" fill="#5a3040">MAR</text>
  <text x="250" y="158" font-family="monospace" font-size="10" fill="#5a3040">MER</text>
  <text x="330" y="158" font-family="monospace" font-size="10" fill="#5a3040">JEU</text>
  <text x="410" y="158" font-family="monospace" font-size="10" fill="#5a3040">VEN</text>

  <!-- Time slots -->
  <text x="62" y="185" font-family="monospace" font-size="9" fill="#3a2030">09h</text>
  <text x="62" y="225" font-family="monospace" font-size="9" fill="#3a2030">10h</text>
  <text x="62" y="265" font-family="monospace" font-size="9" fill="#3a2030">11h</text>
  <text x="62" y="305" font-family="monospace" font-size="9" fill="#3a2030">14h</text>
  <text x="62" y="345" font-family="monospace" font-size="9" fill="#3a2030">15h</text>
  <text x="62" y="385" font-family="monospace" font-size="9" fill="#3a2030">16h</text>

  <!-- Meeting blocks - Monday -->
  <rect x="83" y="170" width="70" height="35" rx="3" fill="#4a1525" stroke="#ff6b6b" stroke-width="1" opacity="0.8"/>
  <text x="118" y="188" font-family="monospace" font-size="8" fill="#ff9090" text-anchor="middle">Daily</text>
  <text x="118" y="199" font-family="monospace" font-size="7" fill="#cc7070" text-anchor="middle">standup</text>
  <rect x="83" y="210" width="70" height="75" rx="3" fill="#4a1525" stroke="#ff6b6b" stroke-width="1" opacity="0.8"/>
  <text x="118" y="245" font-family="monospace" font-size="8" fill="#ff9090" text-anchor="middle">Backlog</text>
  <text x="118" y="257" font-family="monospace" font-size="7" fill="#cc7070" text-anchor="middle">refinement</text>
  <rect x="83" y="290" width="70" height="35" rx="3" fill="#4a1525" stroke="#ff6b6b" stroke-width="1" opacity="0.8"/>
  <text x="118" y="312" font-family="monospace" font-size="8" fill="#ff9090" text-anchor="middle">Sync</text>

  <!-- Tuesday -->
  <rect x="163" y="170" width="70" height="35" rx="3" fill="#4a1525" stroke="#ff6b6b" stroke-width="1" opacity="0.8"/>
  <text x="198" y="191" font-family="monospace" font-size="8" fill="#ff9090" text-anchor="middle">Daily</text>
  <rect x="163" y="250" width="70" height="75" rx="3" fill="#4a1525" stroke="#ff6b6b" stroke-width="1" opacity="0.8"/>
  <text x="198" y="285" font-family="monospace" font-size="8" fill="#ff9090" text-anchor="middle">Sprint</text>
  <text x="198" y="297" font-family="monospace" font-size="7" fill="#cc7070" text-anchor="middle">review</text>
  <rect x="163" y="330" width="70" height="35" rx="3" fill="#4a1525" stroke="#ff6b6b" stroke-width="1" opacity="0.8"/>
  <text x="198" y="352" font-family="monospace" font-size="8" fill="#ff9090" text-anchor="middle">Sync</text>

  <!-- Wednesday -->
  <rect x="243" y="170" width="70" height="35" rx="3" fill="#4a1525" stroke="#ff6b6b" stroke-width="1" opacity="0.8"/>
  <text x="278" y="191" font-family="monospace" font-size="8" fill="#ff9090" text-anchor="middle">Daily</text>
  <rect x="243" y="210" width="70" height="35" rx="3" fill="#4a1525" stroke="#ff6b6b" stroke-width="1" opacity="0.8"/>
  <text x="278" y="232" font-family="monospace" font-size="8" fill="#ff9090" text-anchor="middle">1-on-1</text>
  <rect x="243" y="290" width="70" height="75" rx="3" fill="#4a1525" stroke="#ff6b6b" stroke-width="1" opacity="0.8"/>
  <text x="278" y="325" font-family="monospace" font-size="8" fill="#ff9090" text-anchor="middle">Archi</text>
  <text x="278" y="337" font-family="monospace" font-size="7" fill="#cc7070" text-anchor="middle">review</text>

  <!-- Thursday -->
  <rect x="323" y="170" width="70" height="35" rx="3" fill="#4a1525" stroke="#ff6b6b" stroke-width="1" opacity="0.8"/>
  <text x="358" y="191" font-family="monospace" font-size="8" fill="#ff9090" text-anchor="middle">Daily</text>
  <rect x="323" y="250" width="70" height="35" rx="3" fill="#4a1525" stroke="#ff6b6b" stroke-width="1" opacity="0.8"/>
  <text x="358" y="272" font-family="monospace" font-size="8" fill="#ff9090" text-anchor="middle">Sync PO</text>
  <rect x="323" y="330" width="70" height="75" rx="3" fill="#4a1525" stroke="#ff6b6b" stroke-width="1" opacity="0.8"/>
  <text x="358" y="368" font-family="monospace" font-size="8" fill="#ff9090" text-anchor="middle">Rétro</text>

  <!-- Friday -->
  <rect x="403" y="170" width="70" height="35" rx="3" fill="#4a1525" stroke="#ff6b6b" stroke-width="1" opacity="0.8"/>
  <text x="438" y="191" font-family="monospace" font-size="8" fill="#ff9090" text-anchor="middle">Daily</text>
  <rect x="403" y="210" width="70" height="115" rx="3" fill="#4a1525" stroke="#ff6b6b" stroke-width="1" opacity="0.8"/>
  <text x="438" y="262" font-family="monospace" font-size="8" fill="#ff9090" text-anchor="middle">Planning</text>
  <rect x="403" y="330" width="70" height="35" rx="3" fill="#4a1525" stroke="#ff6b6b" stroke-width="1" opacity="0.8"/>
  <text x="438" y="352" font-family="monospace" font-size="8" fill="#ff9090" text-anchor="middle">Sync</text>

  <!-- Result label -->
  <rect x="70" y="430" width="380" height="58" rx="6" fill="#2a1520" stroke="#ff6b6b" stroke-width="1" opacity="0.7"/>
  <text x="260" y="454" font-family="monospace" font-size="11" fill="#ff6b6b" text-anchor="middle">0 blocs de concentration</text>
  <text x="260" y="472" font-family="monospace" font-size="11" fill="#ff6b6b" text-anchor="middle">Décisions perdues après la réunion</text>

  <!-- Divider -->
  <line x1="600" y1="80" x2="600" y2="510" stroke="#2a3560" stroke-width="1.5" stroke-dasharray="6,4" opacity="0.5"/>

  <!-- VS label -->
  <circle cx="600" cy="295" r="22" fill="#1a1f35" stroke="#2a3560" stroke-width="1.5"/>
  <text x="600" y="300" font-family="monospace" font-size="12" fill="#4a5580" text-anchor="middle">VS</text>

  <!-- Right panel: Async-first (good) -->
  <rect x="670" y="80" width="480" height="430" rx="12" fill="#1a2a1a" stroke="#a6f079" stroke-width="1.5" opacity="0.7"/>
  <text x="910" y="116" font-family="monospace" font-size="13" fill="#a6f079" text-anchor="middle">ASYNC-FIRST</text>
  <line x1="690" y1="128" x2="1130" y2="128" stroke="#a6f079" stroke-width="0.5" opacity="0.3"/>

  <!-- Day header -->
  <text x="710" y="158" font-family="monospace" font-size="10" fill="#3a6040">LUN</text>
  <text x="790" y="158" font-family="monospace" font-size="10" fill="#3a6040">MAR</text>
  <text x="870" y="158" font-family="monospace" font-size="10" fill="#3a6040">MER</text>
  <text x="950" y="158" font-family="monospace" font-size="10" fill="#3a6040">JEU</text>
  <text x="1030" y="158" font-family="monospace" font-size="10" fill="#3a6040">VEN</text>

  <text x="682" y="185" font-family="monospace" font-size="9" fill="#2a4030">09h</text>
  <text x="682" y="225" font-family="monospace" font-size="9" fill="#2a4030">10h</text>
  <text x="682" y="265" font-family="monospace" font-size="9" fill="#2a4030">11h</text>
  <text x="682" y="305" font-family="monospace" font-size="9" fill="#2a4030">14h</text>
  <text x="682" y="345" font-family="monospace" font-size="9" fill="#2a4030">15h</text>
  <text x="682" y="385" font-family="monospace" font-size="9" fill="#2a4030">16h</text>

  <!-- Deep work blocks - large, green -->
  <rect x="703" y="170" width="70" height="155" rx="3" fill="#1a3a20" stroke="#a6f079" stroke-width="1.5" opacity="0.8"/>
  <text x="738" y="247" font-family="monospace" font-size="9" fill="#a6f079" text-anchor="middle">Deep</text>
  <text x="738" y="259" font-family="monospace" font-size="9" fill="#a6f079" text-anchor="middle">work</text>

  <rect x="783" y="170" width="70" height="75" rx="3" fill="#1a3a20" stroke="#a6f079" stroke-width="1.5" opacity="0.8"/>
  <text x="818" y="207" font-family="monospace" font-size="9" fill="#a6f079" text-anchor="middle">Deep</text>
  <text x="818" y="219" font-family="monospace" font-size="9" fill="#a6f079" text-anchor="middle">work</text>

  <!-- Small async message block -->
  <rect x="783" y="252" width="70" height="30" rx="3" fill="#0a2015" stroke="#5a9060" stroke-width="1" opacity="0.8"/>
  <text x="818" y="271" font-family="monospace" font-size="8" fill="#6ab070" text-anchor="middle">msg async</text>

  <rect x="783" y="290" width="70" height="75" rx="3" fill="#1a3a20" stroke="#a6f079" stroke-width="1.5" opacity="0.8"/>
  <text x="818" y="327" font-family="monospace" font-size="9" fill="#a6f079" text-anchor="middle">Deep</text>
  <text x="818" y="339" font-family="monospace" font-size="9" fill="#a6f079" text-anchor="middle">work</text>

  <rect x="863" y="170" width="70" height="195" rx="3" fill="#1a3a20" stroke="#a6f079" stroke-width="1.5" opacity="0.8"/>
  <text x="898" y="265" font-family="monospace" font-size="9" fill="#a6f079" text-anchor="middle">Deep</text>
  <text x="898" y="277" font-family="monospace" font-size="9" fill="#a6f079" text-anchor="middle">work</text>

  <!-- One real meeting -->
  <rect x="943" y="170" width="70" height="35" rx="3" fill="#1a3a20" stroke="#a6f079" stroke-width="1" opacity="0.6"/>
  <text x="978" y="192" font-family="monospace" font-size="8" fill="#7ab070" text-anchor="middle">Rétro</text>

  <rect x="943" y="210" width="70" height="155" rx="3" fill="#1a3a20" stroke="#a6f079" stroke-width="1.5" opacity="0.8"/>
  <text x="978" y="287" font-family="monospace" font-size="9" fill="#a6f079" text-anchor="middle">Deep</text>
  <text x="978" y="299" font-family="monospace" font-size="9" fill="#a6f079" text-anchor="middle">work</text>

  <rect x="1023" y="170" width="70" height="195" rx="3" fill="#1a3a20" stroke="#a6f079" stroke-width="1.5" opacity="0.8"/>
  <text x="1058" y="265" font-family="monospace" font-size="9" fill="#a6f079" text-anchor="middle">Deep</text>
  <text x="1058" y="277" font-family="monospace" font-size="9" fill="#a6f079" text-anchor="middle">work</text>

  <!-- Async messages at bottom of days -->
  <rect x="703" y="330" width="70" height="30" rx="3" fill="#0a2015" stroke="#5a9060" stroke-width="1" opacity="0.8"/>
  <text x="738" y="349" font-family="monospace" font-size="8" fill="#6ab070" text-anchor="middle">page décision</text>

  <rect x="943" y="370" width="70" height="30" rx="3" fill="#0a2015" stroke="#5a9060" stroke-width="1" opacity="0.8"/>
  <text x="978" y="389" font-family="monospace" font-size="8" fill="#6ab070" text-anchor="middle">msg async</text>

  <!-- Result label -->
  <rect x="690" y="430" width="440" height="58" rx="6" fill="#1a3020" stroke="#a6f079" stroke-width="1" opacity="0.7"/>
  <text x="910" y="454" font-family="monospace" font-size="11" fill="#a6f079" text-anchor="middle">Blocs de concentration préservés</text>
  <text x="910" y="472" font-family="monospace" font-size="11" fill="#a6f079" text-anchor="middle">Décisions écrites, tracées, retrouvables</text>

  <!-- Title -->
  <text x="600" y="575" font-family="Georgia, serif" font-size="26" fill="#e0e8ff" text-anchor="middle" opacity="0.9">Async-first : écrire d'abord, se réunir quand nécessaire</text>
</svg>
