<svg xmlns="http://www.w3.org/2000/svg" viewBox="0 0 1200 630">
  <defs>
    <linearGradient id="bg" x1="0%" y1="0%" x2="100%" y2="100%">
      <stop offset="0%" style="stop-color:#1e2235;stop-opacity:1" />
      <stop offset="55%" style="stop-color:#171b2b;stop-opacity:1" />
      <stop offset="100%" style="stop-color:#111520;stop-opacity:1" />
    </linearGradient>
    <linearGradient id="band" x1="0%" y1="0%" x2="0%" y2="100%">
      <stop offset="0%" style="stop-color:#0a0f1a;stop-opacity:0.4" />
      <stop offset="100%" style="stop-color:#0a0f1a;stop-opacity:0.92" />
    </linearGradient>
  </defs>
  <rect width="1200" height="630" fill="url(#bg)"/>
  <g stroke="#2a3350" stroke-width="1" opacity="0.25">
    <line x1="0" y1="126" x2="1200" y2="126"/>
    <line x1="1000" y1="0" x2="1000" y2="630"/>
  </g>
  <circle cx="1080" cy="150" r="120" fill="#8b5cf6" opacity="0.06"/>
  <rect x="0" y="70" width="1200" height="3" fill="#a6f079" opacity="0.55"/>
  <rect x="0" y="70" width="340" height="3" fill="#a6f079"/>

  <g font-family="Georgia, serif" font-size="70" font-weight="bold" fill="#a6f079" opacity="0.9" text-anchor="middle">
    <text x="245" y="245">1</text>
    <text x="475" y="245">2</text>
    <text x="705" y="245">3</text>
    <text x="245" y="365">4</text>
    <text x="475" y="365">5</text>
  </g>
  <g font-family="monospace" font-size="12" fill="#8b9cbf" text-anchor="middle">
    <text x="245" y="280">adoption</text>
    <text x="475" y="280">vocabulaire</text>
    <text x="705" y="280">périmètre</text>
    <text x="245" y="400">coût futur</text>
    <text x="475" y="400">sortie</text>
  </g>

  <rect x="0" y="446" width="1200" height="184" fill="url(#band)"/>
  <rect x="0" y="446" width="1200" height="2" fill="#a6f079" opacity="0.55"/>
  <text x="600" y="500" font-family="Arial, sans-serif" font-size="32" font-weight="bold" text-anchor="middle" fill="#e0e8ff">5 Questions Avant de Choisir un Outil PM</text>
  <text x="600" y="548" font-family="Arial, sans-serif" font-size="22" text-anchor="middle" fill="#c792e9">Au-delà de la démo et du tableau comparatif</text>
  <text x="1150" y="614" font-family="Arial, sans-serif" font-size="16" font-weight="bold" text-anchor="end" fill="#a6f079" opacity="0.7">sinra.app</text>
</svg>
