<svg xmlns="http://www.w3.org/2000/svg" viewBox="0 0 1200 630">
  <defs>
    <linearGradient id="bg" x1="0%" y1="0%" x2="100%" y2="100%">
      <stop offset="0%" style="stop-color:#1e2235;stop-opacity:1" />
      <stop offset="55%" style="stop-color:#171b2b;stop-opacity:1" />
      <stop offset="100%" style="stop-color:#111520;stop-opacity:1" />
    </linearGradient>
    <linearGradient id="band" x1="0%" y1="0%" x2="0%" y2="100%">
      <stop offset="0%" style="stop-color:#0a0f1a;stop-opacity:0.4" />
      <stop offset="100%" style="stop-color:#0a0f1a;stop-opacity:0.92" />
    </linearGradient>
  </defs>

  <rect width="1200" height="630" fill="url(#bg)"/>

  <g stroke="#2a3350" stroke-width="1" opacity="0.25">
    <line x1="0" y1="126" x2="1200" y2="126"/>
    <line x1="0" y1="252" x2="1200" y2="252"/>
    <line x1="0" y1="378" x2="1200" y2="378"/>
    <line x1="200" y1="0" x2="200" y2="630"/>
    <line x1="400" y1="0" x2="400" y2="630"/>
    <line x1="800" y1="0" x2="800" y2="630"/>
    <line x1="1000" y1="0" x2="1000" y2="630"/>
  </g>

  <circle cx="120" cy="120" r="130" fill="#a6f079" opacity="0.05"/>
  <circle cx="1080" cy="150" r="120" fill="#8b5cf6" opacity="0.06"/>
  <circle cx="1050" cy="380" r="90" fill="#c792e9" opacity="0.05"/>

  <g font-family="'Courier New', monospace" font-size="15" fill="#3f4a6b" opacity="0.55">
    <text x="70" y="230">share(what_i_know)</text>
    <text x="70" y="258">own(my_bug)</text>
    <text x="70" y="286">credit(colleague)</text>
    <text x="70" y="314">pair(junior, guide)</text>
    <text x="70" y="342">no_title.required()</text>
  </g>
  <g font-family="'Courier New', monospace" font-size="15" fill="#3f4a6b" opacity="0.45">
    <text x="930" y="250">flag(risk, early)</text>
    <text x="930" y="278">review.explain()</text>
    <text x="930" y="306">// not gatekeep</text>
    <text x="930" y="334">help() != solve_for()</text>
  </g>

  <rect x="0" y="70" width="1200" height="3" fill="#a6f079" opacity="0.55"/>
  <rect x="0" y="70" width="340" height="3" fill="#a6f079"/>

  <!-- Peer network: circle of equal nodes, no hierarchy -->
  <g>
    <g stroke="#8b9cbf" stroke-width="1.8" opacity="0.4">
      <line x1="600" y1="200" x2="440" y2="270"/>
      <line x1="440" y1="270" x2="440" y2="360"/>
      <line x1="440" y1="360" x2="600" y2="410"/>
      <line x1="600" y1="410" x2="760" y2="360"/>
      <line x1="760" y1="360" x2="760" y2="270"/>
      <line x1="760" y1="270" x2="600" y2="200"/>
      <line x1="600" y1="200" x2="600" y2="410"/>
      <line x1="440" y1="270" x2="760" y2="270"/>
      <line x1="440" y1="360" x2="760" y2="360"/>
    </g>

    <circle cx="600" cy="200" r="26" fill="#a6f079" opacity="0.9"/>
    <circle cx="440" cy="270" r="26" fill="#8b5cf6" opacity="0.9"/>
    <circle cx="440" cy="360" r="26" fill="#c792e9" opacity="0.9"/>
    <circle cx="600" cy="410" r="26" fill="#a6f079" opacity="0.9"/>
    <circle cx="760" cy="360" r="26" fill="#c792e9" opacity="0.9"/>
    <circle cx="760" cy="270" r="26" fill="#8b5cf6" opacity="0.9"/>
  </g>

  <rect x="0" y="446" width="1200" height="184" fill="url(#band)"/>
  <rect x="0" y="446" width="1200" height="2" fill="#a6f079" opacity="0.55"/>

  <text x="600" y="490" font-family="Arial, sans-serif" font-size="18" font-weight="bold" letter-spacing="4" text-anchor="middle" fill="#8b9cbf">ENGINEERING</text>

  <text x="600" y="540" font-family="Arial, sans-serif" font-size="50" font-weight="bold" text-anchor="middle" fill="#a6f079">Developer en 2026</text>

  <text x="600" y="582" font-family="Arial, sans-serif" font-size="24" font-weight="normal" text-anchor="middle" fill="#c792e9">Pas besoin d'un titre pour se sacrifier pour l'équipe</text>

  <text x="1150" y="614" font-family="Arial, sans-serif" font-size="16" font-weight="bold" text-anchor="end" fill="#a6f079" opacity="0.7">sinra.app</text>
</svg>
