<svg xmlns="http://www.w3.org/2000/svg" viewBox="0 0 1200 630">
  <defs>
    <linearGradient id="bg" x1="0%" y1="0%" x2="100%" y2="100%">
      <stop offset="0%" style="stop-color:#1e2235;stop-opacity:1" />
      <stop offset="55%" style="stop-color:#171b2b;stop-opacity:1" />
      <stop offset="100%" style="stop-color:#111520;stop-opacity:1" />
    </linearGradient>
    <linearGradient id="band" x1="0%" y1="0%" x2="0%" y2="100%">
      <stop offset="0%" style="stop-color:#0a0f1a;stop-opacity:0.4" />
      <stop offset="100%" style="stop-color:#0a0f1a;stop-opacity:0.92" />
    </linearGradient>
  </defs>

  <rect width="1200" height="630" fill="url(#bg)"/>

  <g stroke="#2a3350" stroke-width="1" opacity="0.25">
    <line x1="0" y1="126" x2="1200" y2="126"/>
    <line x1="0" y1="252" x2="1200" y2="252"/>
    <line x1="0" y1="378" x2="1200" y2="378"/>
    <line x1="200" y1="0" x2="200" y2="630"/>
    <line x1="400" y1="0" x2="400" y2="630"/>
    <line x1="800" y1="0" x2="800" y2="630"/>
    <line x1="1000" y1="0" x2="1000" y2="630"/>
  </g>

  <circle cx="120" cy="120" r="130" fill="#a6f079" opacity="0.05"/>
  <circle cx="1080" cy="150" r="120" fill="#8b5cf6" opacity="0.06"/>
  <circle cx="1050" cy="380" r="90" fill="#c792e9" opacity="0.05"/>

  <!-- Background: assembly, the language everything is written in -->
  <g font-family="'Courier New', monospace" font-size="15" fill="#3f4a6b" opacity="0.55">
    <text x="70" y="210">.intel_syntax noprefix</text>
    <text x="70" y="238">mov  rax, SYS_WRITE</text>
    <text x="70" y="266">syscall</text>
    <text x="70" y="294">; no libc</text>
    <text x="70" y="322">; static ELF</text>
  </g>
  <g font-family="'Courier New', monospace" font-size="15" fill="#3f4a6b" opacity="0.45">
    <text x="915" y="232">call sys_read</text>
    <text x="915" y="260">xor  edi, edi</text>
    <text x="915" y="288">; zero heap</text>
    <text x="915" y="316">; 44 KB, 34 tools</text>
  </g>

  <rect x="0" y="70" width="1200" height="3" fill="#a6f079" opacity="0.55"/>
  <rect x="0" y="70" width="340" height="3" fill="#a6f079"/>

  <!-- Central motif: a terminal window rendering a uolt-table of real sizes -->
  <g>
    <rect x="380" y="146" width="440" height="258" rx="12" fill="#0d1220" stroke="#a6f079" stroke-width="2" opacity="0.96"/>
    <rect x="380" y="146" width="440" height="34" rx="12" fill="#161d2e" opacity="0.9"/>
    <rect x="380" y="168" width="440" height="12" fill="#161d2e" opacity="0.9"/>
    <circle cx="404" cy="163" r="6" fill="#ff5f56"/>
    <circle cx="424" cy="163" r="6" fill="#ffbd2e"/>
    <circle cx="444" cy="163" r="6" fill="#27c93f"/>
    <text x="800" y="168" font-family="'Courier New', monospace" font-size="14" text-anchor="end" fill="#5a6790">ls | uolt-column -t</text>

    <!-- aligned columns (uolt-column output), no borders -->
    <g font-family="'Courier New', monospace" font-size="22">
      <text x="422" y="230" fill="#c792e9">outil</text>
      <text x="612" y="230" fill="#c792e9">taille</text>

      <text x="422" y="272" fill="#8b9cbf">true</text>
      <text x="612" y="272" fill="#a6f079">384 B</text>

      <text x="422" y="312" fill="#8b9cbf">echo</text>
      <text x="612" y="312" fill="#a6f079">608 B</text>

      <text x="422" y="352" fill="#8b9cbf">column</text>
      <text x="612" y="352" fill="#a6f079">1552 B</text>
    </g>
  </g>

  <rect x="0" y="446" width="1200" height="184" fill="url(#band)"/>
  <rect x="0" y="446" width="1200" height="2" fill="#a6f079" opacity="0.55"/>

  <text x="600" y="490" font-family="Arial, sans-serif" font-size="18" font-weight="bold" letter-spacing="4" text-anchor="middle" fill="#8b9cbf">ENGINEERING</text>

  <text x="600" y="540" font-family="Arial, sans-serif" font-size="50" font-weight="bold" text-anchor="middle" fill="#a6f079">UOLT — Unix en assembleur</text>

  <text x="600" y="582" font-family="Arial, sans-serif" font-size="24" font-weight="normal" text-anchor="middle" fill="#c792e9">34 outils POSIX, statiques, zéro dépendance, sous le kilo-octet</text>

  <text x="1150" y="614" font-family="Arial, sans-serif" font-size="16" font-weight="bold" text-anchor="end" fill="#a6f079" opacity="0.7">sinra.app</text>
</svg>
