<svg viewBox="0 0 200 200" xmlns="http://www.w3.org/2000/svg">
  <!-- Background circle -->
  <circle cx="100" cy="100" r="90" fill="none" stroke="#E8F5E9" stroke-width="2"/>

  <!-- Eye icon with data -->
  <g transform="translate(100, 100)">
    <!-- Eye outline -->
    <path d="M -35 0 Q 0 -20 35 0 Q 0 20 -35 0" fill="none" stroke="#4CAF50" stroke-width="2"/>

    <!-- Pupil -->
    <circle cx="0" cy="0" r="8" fill="#4CAF50"/>

    <!-- Data bars inside eye -->
    <g transform="translate(0, 0)">
      <rect x="-28" y="-8" width="4" height="16" fill="#4CAF50" opacity="0.6" rx="2"/>
      <rect x="-18" y="-12" width="4" height="24" fill="#4CAF50" opacity="0.7" rx="2"/>
      <rect x="-8" y="-5" width="4" height="10" fill="#4CAF50" opacity="0.6" rx="2"/>
    </g>

    <!-- Sparkle effects (visibility indicators) -->
    <circle cx="15" cy="-18" r="2.5" fill="#4CAF50"/>
    <circle cx="25" cy="-12" r="2" fill="#4CAF50" opacity="0.6"/>
    <circle cx="20" cy="20" r="2.5" fill="#4CAF50"/>

    <!-- Project/grid -->
    <g transform="translate(0, 35)">
      <rect x="-20" y="0" width="8" height="8" fill="none" stroke="#4CAF50" stroke-width="1" rx="1"/>
      <rect x="-8" y="0" width="8" height="8" fill="none" stroke="#4CAF50" stroke-width="1" rx="1"/>
      <rect x="4" y="0" width="8" height="8" fill="none" stroke="#4CAF50" stroke-width="1" rx="1"/>
      <rect x="-20" y="10" width="8" height="8" fill="none" stroke="#4CAF50" stroke-width="1" rx="1"/>
      <rect x="-8" y="10" width="8" height="8" fill="none" stroke="#4CAF50" stroke-width="1" rx="1"/>
      <rect x="4" y="10" width="8" height="8" fill="none" stroke="#4CAF50" stroke-width="1" rx="1"/>
    </g>
  </g>
</svg>