<svg xmlns="http://www.w3.org/2000/svg" viewBox="0 0 800 500">
  <!-- Background -->
  <rect width="800" height="500" fill="#f8f9fa"/>

  <!-- Title -->
  <text x="400" y="30" font-family="Arial, sans-serif" font-size="18" font-weight="bold" text-anchor="middle" fill="#2c3e50">
    Dashboard QA Temps Réel Par Release
  </text>

  <!-- Release header -->
  <rect x="50" y="50" width="700" height="50" fill="#3498db" rx="8"/>
  <text x="80" y="78" font-family="Arial, sans-serif" font-size="14" font-weight="bold" text-anchor="start" fill="white">
    🚀 Release: SaaS Platform v2.5
  </text>
  <text x="720" y="78" font-family="Arial, sans-serif" font-size="12" text-anchor="end" fill="white">
    📅 Livraison: 30 Dec 2025
  </text>

  <!-- Progress bar -->
  <rect x="50" y="120" width="700" height="40" fill="#ecf0f1" stroke="#bdc3c7" stroke-width="2" rx="6"/>
  <rect x="50" y="120" width="364" height="40" fill="#27ae60" rx="6"/>
  <text x="400" y="145" font-family="Arial, sans-serif" font-size="14" font-weight="bold" text-anchor="middle" fill="#2c3e50">
    Progression Globale QA: 15/29 tests = 52% complété
  </text>

  <!-- Capability 1: SSO - Validated -->
  <g>
    <rect x="50" y="180" width="700" height="60" fill="#27ae60" opacity="0.2" stroke="#27ae60" stroke-width="2" rx="6"/>
    <text x="70" y="203" font-family="Arial, sans-serif" font-size="13" font-weight="bold" text-anchor="start" fill="#2c3e50">
      Authentification SSO
    </text>
    <text x="70" y="222" font-family="Arial, sans-serif" font-size="10" text-anchor="start" fill="#7f8c8d">
      6 tests total
    </text>

    <rect x="250" y="190" width="100" height="30" fill="#27ae60" rx="4"/>
    <text x="300" y="210" font-family="Arial, sans-serif" font-size="11" text-anchor="middle" fill="white">
      ✅ 6 Passed
    </text>

    <rect x="360" y="190" width="100" height="30" fill="#ecf0f1" rx="4"/>
    <text x="410" y="210" font-family="Arial, sans-serif" font-size="11" text-anchor="middle" fill="#95a5a6">
      0 Failed
    </text>

    <rect x="470" y="190" width="100" height="30" fill="#ecf0f1" rx="4"/>
    <text x="520" y="210" font-family="Arial, sans-serif" font-size="11" text-anchor="middle" fill="#95a5a6">
      0 Not Run
    </text>

    <rect x="590" y="190" width="140" height="30" fill="#27ae60" rx="4"/>
    <text x="660" y="210" font-family="Arial, sans-serif" font-size="12" font-weight="bold" text-anchor="middle" fill="white">
      ✅ Validé QA
    </text>
  </g>

  <!-- Capability 2: Analytics - In Progress -->
  <g>
    <rect x="50" y="250" width="700" height="60" fill="#f39c12" opacity="0.2" stroke="#f39c12" stroke-width="2" rx="6"/>
    <text x="70" y="273" font-family="Arial, sans-serif" font-size="13" font-weight="bold" text-anchor="start" fill="#2c3e50">
      Analytics Dashboard
    </text>
    <text x="70" y="292" font-family="Arial, sans-serif" font-size="10" text-anchor="start" fill="#7f8c8d">
      8 tests total
    </text>

    <rect x="250" y="260" width="100" height="30" fill="#27ae60" rx="4"/>
    <text x="300" y="280" font-family="Arial, sans-serif" font-size="11" text-anchor="middle" fill="white">
      5 Passed
    </text>

    <rect x="360" y="260" width="100" height="30" fill="#e74c3c" rx="4"/>
    <text x="410" y="280" font-family="Arial, sans-serif" font-size="11" text-anchor="middle" fill="white">
      ❌ 1 Failed
    </text>

    <rect x="470" y="260" width="100" height="30" fill="#95a5a6" rx="4"/>
    <text x="520" y="280" font-family="Arial, sans-serif" font-size="11" text-anchor="middle" fill="white">
      2 Not Run
    </text>

    <rect x="590" y="260" width="140" height="30" fill="#f39c12" rx="4"/>
    <text x="660" y="280" font-family="Arial, sans-serif" font-size="12" font-weight="bold" text-anchor="middle" fill="white">
      ⚠️ En cours
    </text>
  </g>

  <!-- Capability 3: Webhooks - Not Started -->
  <g>
    <rect x="50" y="320" width="700" height="60" fill="#e74c3c" opacity="0.2" stroke="#e74c3c" stroke-width="2" rx="6"/>
    <text x="70" y="343" font-family="Arial, sans-serif" font-size="13" font-weight="bold" text-anchor="start" fill="#2c3e50">
      API Webhooks
    </text>
    <text x="70" y="362" font-family="Arial, sans-serif" font-size="10" text-anchor="start" fill="#7f8c8d">
      10 tests total
    </text>

    <rect x="250" y="330" width="100" height="30" fill="#ecf0f1" rx="4"/>
    <text x="300" y="350" font-family="Arial, sans-serif" font-size="11" text-anchor="middle" fill="#95a5a6">
      0 Passed
    </text>

    <rect x="360" y="330" width="100" height="30" fill="#ecf0f1" rx="4"/>
    <text x="410" y="350" font-family="Arial, sans-serif" font-size="11" text-anchor="middle" fill="#95a5a6">
      0 Failed
    </text>

    <rect x="470" y="330" width="100" height="30" fill="#e74c3c" rx="4"/>
    <text x="520" y="350" font-family="Arial, sans-serif" font-size="11" text-anchor="middle" fill="white">
      🚨 10 Not Run
    </text>

    <rect x="590" y="330" width="140" height="30" fill="#e74c3c" rx="4"/>
    <text x="660" y="350" font-family="Arial, sans-serif" font-size="11" font-weight="bold" text-anchor="middle" fill="white">
      🚨 Pas commencé
    </text>
  </g>

  <!-- Capability 4: PDF - In Progress -->
  <g>
    <rect x="50" y="390" width="700" height="60" fill="#f39c12" opacity="0.2" stroke="#f39c12" stroke-width="2" rx="6"/>
    <text x="70" y="413" font-family="Arial, sans-serif" font-size="13" font-weight="bold" text-anchor="start" fill="#2c3e50">
      Export PDF
    </text>
    <text x="70" y="432" font-family="Arial, sans-serif" font-size="10" text-anchor="start" fill="#7f8c8d">
      5 tests total
    </text>

    <rect x="250" y="400" width="100" height="30" fill="#27ae60" rx="4"/>
    <text x="300" y="420" font-family="Arial, sans-serif" font-size="11" text-anchor="middle" fill="white">
      4 Passed
    </text>

    <rect x="360" y="400" width="100" height="30" fill="#ecf0f1" rx="4"/>
    <text x="410" y="420" font-family="Arial, sans-serif" font-size="11" text-anchor="middle" fill="#95a5a6">
      0 Failed
    </text>

    <rect x="470" y="400" width="100" height="30" fill="#95a5a6" rx="4"/>
    <text x="520" y="420" font-family="Arial, sans-serif" font-size="11" text-anchor="middle" fill="white">
      1 Not Run
    </text>

    <rect x="590" y="400" width="140" height="30" fill="#f39c12" rx="4"/>
    <text x="660" y="420" font-family="Arial, sans-serif" font-size="12" font-weight="bold" text-anchor="middle" fill="white">
      ⚠️ En cours
    </text>
  </g>

  <!-- Alerts -->
  <rect x="50" y="460" width="340" height="30" fill="#e74c3c" rx="4"/>
  <text x="220" y="480" font-family="Arial, sans-serif" font-size="11" font-weight="bold" text-anchor="middle" fill="white">
    🚨 API Webhooks: 0 tests (livraison dans 8j)
  </text>

  <rect x="410" y="460" width="340" height="30" fill="#f39c12" rx="4"/>
  <text x="580" y="480" font-family="Arial, sans-serif" font-size="11" font-weight="bold" text-anchor="middle" fill="white">
    ⚠️ Analytics: 1 bug actif (bloque validation)
  </text>
</svg>
