<svg class="we-logo-svg" xmlns="http://www.w3.org/2000/svg" width="268.927" height="39.606" viewBox="0 0 268.927 39.606">
					<g id="Group_536" data-name="Group 536" transform="translate(23732 22707)">
						<g id="WeThink_Nordic_2022_Logo_Blue_" transform="translate(-23732 -22707)">
							<g id="Group_536-2" data-name="Group 536" transform="translate(0 7.866)">
								<path id="Path_296" data-name="Path 296" d="M1.812,41.611a.988.988,0,0,0-1.13-.789H0V36.9H3.006c1.769,0,2.728.426,3.112,2.046L9.55,53.932A21.837,21.837,0,0,1,9.976,56.6h.064a23.141,23.141,0,0,1,.533-2.665l4.562-16.968h3.922l4.327,16.968a17.654,17.654,0,0,1,.49,2.665h.064a22.524,22.524,0,0,1,.426-2.665l3.475-14.985c.362-1.62,1.3-2.046,3.07-2.046h3.048v3.922h-.682c-.639,0-.981.171-1.13.789L26.9,62.032h-5.35L17.778,47.814a29.8,29.8,0,0,1-.639-3.112h-.064a25.672,25.672,0,0,1-.682,3.112L12.385,62.053H7.013Z" transform="translate(0 -36.9)" fill="#fff"></path>
								<path id="Path_297" data-name="Path 297" d="M164.466,68.2c5.159,0,7.994,3.794,7.994,8.569,0,.533-.107,1.663-.107,1.663h-12.47a5.194,5.194,0,0,0,5.414,4.86,8.254,8.254,0,0,0,5.073-2.025l1.876,3.112A11,11,0,0,1,165,87.108a9.249,9.249,0,0,1-9.7-9.443c0-5.585,3.752-9.464,9.166-9.464m3.411,7.1a3.5,3.5,0,0,0-3.389-3.645,4.35,4.35,0,0,0-4.434,3.645Z" transform="translate(-122.196 -61.528)" fill="#fff"></path>
								<path id="Path_298" data-name="Path 298" d="M245.318,40.922H241.46a.718.718,0,0,0-.789.789v1.513H236.6V39.26c0-1.663.576-2.26,2.26-2.26h17.522c1.705,0,2.26.6,2.26,2.26v3.965H254.57V41.69a.718.718,0,0,0-.789-.789h-3.858v21.21h-4.647V40.922Z" transform="translate(-186.166 -36.979)" fill="#fff"></path>
								<path id="Path_299" data-name="Path 299" d="M311.8,41.5a.7.7,0,0,0-.789-.789H309.6V36.9h4.285c1.663,0,2.409.746,2.409,2.366V45.6c0,.9-.064,1.513-.064,1.513h.064a6.907,6.907,0,0,1,6.2-3.581c4.029,0,6.31,2.089,6.31,6.864v7.056a.718.718,0,0,0,.789.789H331v3.794h-4.285c-1.663,0-2.366-.7-2.366-2.409V51.331c0-2.2-.6-3.688-2.878-3.688a5.066,5.066,0,0,0-4.882,3.752,8.14,8.14,0,0,0-.277,2.345v8.292h-4.5V41.5Z" transform="translate(-243.605 -36.9)" fill="#fff"></path>
								<path id="Path_300" data-name="Path 300" d="M416.9,48.581a.7.7,0,0,0-.789-.789H414.7V44h4.285c1.663,0,2.366.746,2.366,2.409V57.492a.718.718,0,0,0,.789.789h1.407v3.794h-4.285c-1.663,0-2.366-.7-2.366-2.409Zm.213-11.681h3.9v4.135h-3.9Z" transform="translate(-326.301 -36.9)" fill="#fff"></path>
								<path id="Path_301" data-name="Path 301" d="M463.5,73.288a.7.7,0,0,0-.789-.789H461.3V68.7h4.135c1.6,0,2.366.746,2.366,2.025v.533a5.853,5.853,0,0,1-.064.789h.064a6.972,6.972,0,0,1,6.374-3.752c4.008,0,6.31,2.089,6.31,6.864V82.22a.718.718,0,0,0,.789.789h1.407V86.8H478.4c-1.705,0-2.409-.7-2.409-2.409V76.1c0-2.2-.576-3.688-2.835-3.688a4.953,4.953,0,0,0-4.86,3.688,7.4,7.4,0,0,0-.362,2.409V86.8h-4.455V73.288Z" transform="translate(-362.968 -61.607)" fill="#fff"></path>
								<path id="Path_302" data-name="Path 302" d="M567.1,41.5a.7.7,0,0,0-.789-.789H564.9V36.9h4.285c1.663,0,2.409.384,2.409,2.046v11.4h1.343a1.992,1.992,0,0,0,1.705-.682l3.688-5.691h4.988l-4.583,6.8a4.426,4.426,0,0,1-1.343,1.407v.064a3.073,3.073,0,0,1,1.279,1.407l2.046,3.9c.277.533.639.682,1.492.682H583.4v3.794h-3.325c-1.513,0-2.132-.256-2.835-1.556l-3.006-5.649a1.726,1.726,0,0,0-1.663-.682h-1v7.887h-4.5V41.5Z" transform="translate(-444.484 -36.9)" fill="#fff"></path>
							</g>
							<g id="Group_537" data-name="Group 537" transform="translate(136.488 7.759)">
								<path id="Path_303" data-name="Path 303" d="M643.284,42.369a2.984,2.984,0,1,1,2.984-2.984A2.993,2.993,0,0,1,643.284,42.369Zm0-5.436a2.451,2.451,0,1,0,2.451,2.451A2.452,2.452,0,0,0,643.284,36.933Z" transform="translate(-640.3 -36.4)" fill="#fff"></path>
							</g>
							<path id="Path_304" data-name="Path 304" d="M649.061,44.1a.382.382,0,0,0-.426.3l-.3,1.3-.405-1.577h-.576l-.426,1.6-.3-1.322a.382.382,0,0,0-.426-.3h-.4v.618h.192l.554,2.153h.725l.405-1.407.384,1.407h.7l.533-2.153h.192V44.1Z" transform="translate(-508.139 -34.699)" fill="#fff"></path>
							<g id="Group_538" data-name="Group 538" transform="translate(144.759)">
								<path id="Path_305" data-name="Path 305" d="M856.029,86.3a5.634,5.634,0,1,0,5.372,5.628A5.378,5.378,0,0,0,856.029,86.3Z" transform="translate(-814.121 -67.904)" fill="#fff"></path>
								<path id="Path_306" data-name="Path 306" d="M1023.919,86.5c-2.473,0-4.519,2.025-4.519,5.585,0,3.432,1.812,5.649,4.455,5.649,2.324,0,4.519-1.705,4.519-5.691C1028.374,89.25,1026.925,86.5,1023.919,86.5Z" transform="translate(-946.861 -68.061)" fill="#fff"></path>
								<path id="Path_307" data-name="Path 307" d="M679.1,0V39.606H803.268V0Zm92.129,7.93h3.88v4.135h-3.88Zm-61.391,3.922h-1.513a.7.7,0,0,0-.767.767V33.04h-4.135l-9.55-13.856a39.332,39.332,0,0,1-2.089-3.539h-.064s.256,2.089.256,3.539V30.632c0,1.705-.7,2.409-2.409,2.409h-4.519V29.118h1.513a.7.7,0,0,0,.767-.767V7.93h4.178l9.507,13.9c.981,1.45,2.089,3.539,2.089,3.539h.064s-.256-2.089-.256-3.539V10.338c0-1.663.7-2.409,2.409-2.409h4.519Zm11.17,21.615c-5.478,0-9.87-3.88-9.87-9.443,0-5.521,4.391-9.443,9.87-9.443,5.521,0,9.891,3.922,9.891,9.443C730.92,29.566,726.529,33.467,721.008,33.467Zm24.833-14.218a8.931,8.931,0,0,0-1.087-.064,5.085,5.085,0,0,0-4.924,3.773,10.568,10.568,0,0,0-.384,2.942V33.04h-4.455V19.611a.694.694,0,0,0-.767-.789h-1.407V15.007h4.093c1.6,0,2.409.682,2.409,2.2v1.066a8.808,8.808,0,0,1-.064,1.13h.064a6.193,6.193,0,0,1,5.734-4.626,6.388,6.388,0,0,1,.81.064v4.412ZM767.158,33.04h-4.135c-1.62,0-2.217-.767-2.217-1.833v-.682h-.064a6.215,6.215,0,0,1-5.628,2.942c-4.881,0-8.036-3.858-8.036-9.443,0-5.734,3.432-9.443,8.207-9.443,3.922,0,5.2,2.2,5.2,2.2h.064s-.043-.469-.043-1.066V12.534a.678.678,0,0,0-.767-.767h-1.407V7.93h4.285c1.663,0,2.409.746,2.409,2.409v18.14a.7.7,0,0,0,.767.767h1.386V33.04Zm10.488,0h-4.285c-1.663,0-2.366-.7-2.366-2.409V19.611a.694.694,0,0,0-.767-.789H768.82V15.007h4.285c1.663,0,2.366.746,2.366,2.409V28.479a.7.7,0,0,0,.789.767h1.407V33.04Zm11.745.426c-5.947,0-9.763-4.2-9.763-9.443,0-5.095,3.688-9.443,9.87-9.443,2.323,0,6.544.959,6.544,4.071v2.132h-3.965V19.8c0-.981-1.492-1.407-2.579-1.407a5.29,5.29,0,0,0-5.329,5.628,5.328,5.328,0,0,0,5.628,5.542,8.137,8.137,0,0,0,5.329-2.43L797,30.248A10.536,10.536,0,0,1,789.391,33.467Z" transform="translate(-679.1)" fill="#fff"></path>
							</g>
						</g>
					</g>
				</svg>