<svg width="204" height="30" viewBox="0 0 204 30" fill="none" xmlns="http://www.w3.org/2000/svg">
<path d="M15.6798 22.9593H12.8605L11.4845 19.4437H4.27356L2.83118 22.9593H0.0782471L6.5675 7.79425H9.18958L15.6798 22.9593ZM5.18958 17.2396H10.5656L7.87805 10.6214L5.18958 17.2396Z" fill="#15234A"></path>
<path d="M15.6798 22.9593H12.8605L11.4845 19.4437H4.27356L2.83118 22.9593H0.0782471L6.5675 7.79425H9.18958L15.6798 22.9593ZM5.18958 17.2396H10.5656L7.87805 10.6214L5.18958 17.2396Z" fill="url(#paint0_linear_5018_7151)" fill-opacity="0.6"></path>
<path d="M15.6798 22.9593H12.8605L11.4845 19.4437H4.27356L2.83118 22.9593H0.0782471L6.5675 7.79425H9.18958L15.6798 22.9593ZM5.18958 17.2396H10.5656L7.87805 10.6214L5.18958 17.2396Z" fill="url(#paint1_linear_5018_7151)"></path>
<path d="M39.6804 7.79876H42.3679V22.964H39.6804V7.79876Z" fill="#15234A"></path>
<path d="M39.6804 7.79876H42.3679V22.964H39.6804V7.79876Z" fill="url(#paint2_linear_5018_7151)" fill-opacity="0.6"></path>
<path d="M39.6804 7.79876H42.3679V22.964H39.6804V7.79876Z" fill="url(#paint3_linear_5018_7151)"></path>
<path d="M62.9518 7.79876L56.6586 22.964H54.0362L47.743 7.79876H50.6279L55.4128 19.5174L60.2635 7.79876H62.9518Z" fill="#15234A"></path>
<path d="M62.9518 7.79876L56.6586 22.964H54.0362L47.743 7.79876H50.6279L55.4128 19.5174L60.2635 7.79876H62.9518Z" fill="url(#paint4_linear_5018_7151)" fill-opacity="0.6"></path>
<path d="M62.9518 7.79876L56.6586 22.964H54.0362L47.743 7.79876H50.6279L55.4128 19.5174L60.2635 7.79876H62.9518Z" fill="url(#paint5_linear_5018_7151)"></path>
<path d="M81.1754 22.9638H78.4225L76.9801 19.4482H69.7692L68.3268 22.9638H65.5739L72.0641 7.79876H74.6862L81.1754 22.9638ZM70.6862 17.2421H76.0621L73.3746 10.6249L70.6862 17.2421Z" fill="#15234A"></path>
<path d="M81.1754 22.9638H78.4225L76.9801 19.4482H69.7692L68.3268 22.9638H65.5739L72.0641 7.79876H74.6862L81.1754 22.9638ZM70.6862 17.2421H76.0621L73.3746 10.6249L70.6862 17.2421Z" fill="url(#paint6_linear_5018_7151)" fill-opacity="0.6"></path>
<path d="M81.1754 22.9638H78.4225L76.9801 19.4482H69.7692L68.3268 22.9638H65.5739L72.0641 7.79876H74.6862L81.1754 22.9638ZM70.6862 17.2421H76.0621L73.3746 10.6249L70.6862 17.2421Z" fill="url(#paint7_linear_5018_7151)"></path>
<path d="M86.6161 7.79876H89.3035V20.5514H96.8425V22.964H86.6161V7.79876Z" fill="#15234A"></path>
<path d="M86.6161 7.79876H89.3035V20.5514H96.8425V22.964H86.6161V7.79876Z" fill="url(#paint8_linear_5018_7151)" fill-opacity="0.6"></path>
<path d="M86.6161 7.79876H89.3035V20.5514H96.8425V22.964H86.6161V7.79876Z" fill="url(#paint9_linear_5018_7151)"></path>
<path d="M28.4817 7.65903C29.7272 7.65903 30.8423 7.86598 31.76 8.34849C32.6776 8.76209 33.3987 9.38268 33.9231 10.2098C34.4474 11.0369 34.6437 12.0017 34.6438 13.1043C34.6438 14.2763 34.3821 15.242 33.8577 16.0692C33.3333 16.8964 32.546 17.5169 31.5627 17.9305L34.9719 22.9627H32.0872L29.1379 18.4813H25.2698V22.9627H22.5168V7.65903H28.4817ZM25.2708 16.2088H28.4172C29.5971 16.2088 30.5148 15.9332 31.1047 15.3817C31.6946 14.8303 32.0226 14.0722 32.0227 13.1073C32.0227 12.1423 31.6947 11.3833 31.1047 10.8319C30.5147 10.2805 29.597 10.0741 28.4172 10.0741H25.2708V16.2088Z" fill="url(#paint10_linear_5018_7151)"></path>
<path d="M25.9702 7.65903C27.2158 7.65903 28.3308 7.86598 29.2485 8.34849C30.1661 8.76209 30.8873 9.38269 31.4116 10.2098C31.9359 11.0369 32.1323 12.0017 32.1323 13.1043C32.1323 14.2763 31.8706 15.242 31.3462 16.0692C30.8218 16.8964 30.0346 17.5169 29.0513 17.9305L32.4604 22.9627H29.5757L26.6265 18.4813H22.7583V22.9627H20.0054V7.65903H25.9702ZM22.7593 16.2088H25.9058C27.0855 16.2088 28.0033 15.9331 28.5933 15.3817C29.1832 14.8303 29.5111 14.0722 29.5112 13.1073C29.5112 12.1423 29.1832 11.3833 28.5933 10.8319C28.0033 10.2807 27.0854 10.0741 25.9058 10.0741H22.7593V16.2088Z" fill="#15234A"></path>
<path d="M25.9702 7.65903C27.2158 7.65903 28.3308 7.86598 29.2485 8.34849C30.1661 8.76209 30.8873 9.38269 31.4116 10.2098C31.9359 11.0369 32.1323 12.0017 32.1323 13.1043C32.1323 14.2763 31.8706 15.242 31.3462 16.0692C30.8218 16.8964 30.0346 17.5169 29.0513 17.9305L32.4604 22.9627H29.5757L26.6265 18.4813H22.7583V22.9627H20.0054V7.65903H25.9702ZM22.7593 16.2088H25.9058C27.0855 16.2088 28.0033 15.9331 28.5933 15.3817C29.1832 14.8303 29.5111 14.0722 29.5112 13.1073C29.5112 12.1423 29.1832 11.3833 28.5933 10.8319C28.0033 10.2807 27.0854 10.0741 25.9058 10.0741H22.7593V16.2088Z" fill="url(#paint11_linear_5018_7151)" fill-opacity="0.6"></path>
<path d="M25.9702 7.65903C27.2158 7.65903 28.3308 7.86598 29.2485 8.34849C30.1661 8.76209 30.8873 9.38269 31.4116 10.2098C31.9359 11.0369 32.1323 12.0017 32.1323 13.1043C32.1323 14.2763 31.8706 15.242 31.3462 16.0692C30.8218 16.8964 30.0346 17.5169 29.0513 17.9305L32.4604 22.9627H29.5757L26.6265 18.4813H22.7583V22.9627H20.0054V7.65903H25.9702ZM22.7593 16.2088H25.9058C27.0855 16.2088 28.0033 15.9331 28.5933 15.3817C29.1832 14.8303 29.5111 14.0722 29.5112 13.1073C29.5112 12.1423 29.1832 11.3833 28.5933 10.8319C28.0033 10.2807 27.0854 10.0741 25.9058 10.0741H22.7593V16.2088Z" fill="url(#paint12_linear_5018_7151)"></path>
<path d="M113.155 0.912264L101.768 27.9123C101.351 28.9017 102.07 30 103.135 30H191.61C192.22 30 192.768 29.624 192.992 29.0516L203.565 2.05162C203.95 1.06712 203.232 0 202.184 0H114.521C113.926 0 113.388 0.359058 113.155 0.912264Z" fill="#15234A"></path>
<path d="M113.155 0.912264L101.768 27.9123C101.351 28.9017 102.07 30 103.135 30H191.61C192.22 30 192.768 29.624 192.992 29.0516L203.565 2.05162C203.95 1.06712 203.232 0 202.184 0H114.521C113.926 0 113.388 0.359058 113.155 0.912264Z" fill="url(#paint13_linear_5018_7151)" fill-opacity="0.6"></path>
<path d="M113.155 0.912264L101.768 27.9123C101.351 28.9017 102.07 30 103.135 30H191.61C192.22 30 192.768 29.624 192.992 29.0516L203.565 2.05162C203.95 1.06712 203.232 0 202.184 0H114.521C113.926 0 113.388 0.359058 113.155 0.912264Z" fill="url(#paint14_linear_5018_7151)"></path>
<path d="M127.022 15.1087C127.868 15.2553 128.586 15.6877 129.175 16.406C129.764 17.1243 130.059 17.9379 130.059 18.8468C130.059 19.6238 129.847 20.3274 129.424 20.9578C129.016 21.5735 128.42 22.0645 127.634 22.431C126.849 22.7829 125.935 22.9588 124.892 22.9588H118.592V7.67636H124.598C125.67 7.67636 126.592 7.85227 127.362 8.2041C128.133 8.55593 128.714 9.03236 129.107 9.63339C129.5 10.2198 129.696 10.8794 129.696 11.6124C129.696 12.492 129.455 13.2249 128.971 13.8113C128.488 14.3977 127.838 14.8301 127.022 15.1087ZM121.176 14.0972H124.371C125.217 14.0972 125.874 13.9139 126.342 13.5474C126.826 13.1663 127.068 12.6239 127.068 11.9203C127.068 11.2313 126.826 10.6962 126.342 10.315C125.874 9.91925 125.217 9.72134 124.371 9.72134H121.176V14.0972ZM124.666 20.9138C125.542 20.9138 126.229 20.7085 126.728 20.2981C127.226 19.8876 127.475 19.3159 127.475 18.5829C127.475 17.8353 127.211 17.2416 126.682 16.8018C126.154 16.362 125.451 16.1422 124.575 16.1422H121.176V20.9138H124.666Z" fill="#45598F"></path>
<path d="M145.647 19.8363H139.053L137.92 22.9588H135.223L140.865 7.65437H143.857L149.499 22.9588H146.78L145.647 19.8363ZM144.922 17.7913L142.361 10.6889L139.778 17.7913H144.922Z" fill="#45598F"></path>
<path d="M168.178 22.9588H165.595L157.822 11.5464V22.9588H155.239V7.65437H157.822L165.595 19.0447V7.65437H168.178V22.9588Z" fill="#45598F"></path>
<path d="M183.535 22.9588L177.439 16.1202V22.9588H174.856V7.67636H177.439V14.6469L183.558 7.67636H186.798L179.955 15.3286L186.912 22.9588H183.535Z" fill="#45598F"></path>
<defs>
<linearGradient id="paint0_linear_5018_7151" x1="7.87903" y1="7.79425" x2="7.87903" y2="22.9593" gradientUnits="userSpaceOnUse">
<stop stop-color="#2E4077"></stop>
<stop offset="1" stop-color="#5A6FA9"></stop>
</linearGradient>
<linearGradient id="paint1_linear_5018_7151" x1="7.87903" y1="7.79425" x2="7.87903" y2="22.9593" gradientUnits="userSpaceOnUse">
<stop stop-color="#91A5DF"></stop>
<stop offset="1" stop-color="white"></stop>
</linearGradient>
<linearGradient id="paint2_linear_5018_7151" x1="41.0241" y1="7.79876" x2="41.0241" y2="22.964" gradientUnits="userSpaceOnUse">
<stop stop-color="#2E4077"></stop>
<stop offset="1" stop-color="#5A6FA9"></stop>
</linearGradient>
<linearGradient id="paint3_linear_5018_7151" x1="41.0241" y1="7.79876" x2="41.0241" y2="22.964" gradientUnits="userSpaceOnUse">
<stop stop-color="#91A5DF"></stop>
<stop offset="1" stop-color="white"></stop>
</linearGradient>
<linearGradient id="paint4_linear_5018_7151" x1="55.3474" y1="7.79876" x2="55.3474" y2="22.964" gradientUnits="userSpaceOnUse">
<stop stop-color="#2E4077"></stop>
<stop offset="1" stop-color="#5A6FA9"></stop>
</linearGradient>
<linearGradient id="paint5_linear_5018_7151" x1="55.3474" y1="7.79876" x2="55.3474" y2="22.964" gradientUnits="userSpaceOnUse">
<stop stop-color="#91A5DF"></stop>
<stop offset="1" stop-color="white"></stop>
</linearGradient>
<linearGradient id="paint6_linear_5018_7151" x1="73.3746" y1="7.79876" x2="73.3746" y2="22.9638" gradientUnits="userSpaceOnUse">
<stop stop-color="#2E4077"></stop>
<stop offset="1" stop-color="#5A6FA9"></stop>
</linearGradient>
<linearGradient id="paint7_linear_5018_7151" x1="73.3746" y1="7.79876" x2="73.3746" y2="22.9638" gradientUnits="userSpaceOnUse">
<stop stop-color="#91A5DF"></stop>
<stop offset="1" stop-color="white"></stop>
</linearGradient>
<linearGradient id="paint8_linear_5018_7151" x1="91.7293" y1="7.79876" x2="91.7293" y2="22.964" gradientUnits="userSpaceOnUse">
<stop stop-color="#2E4077"></stop>
<stop offset="1" stop-color="#5A6FA9"></stop>
</linearGradient>
<linearGradient id="paint9_linear_5018_7151" x1="91.7293" y1="7.79876" x2="91.7293" y2="22.964" gradientUnits="userSpaceOnUse">
<stop stop-color="#91A5DF"></stop>
<stop offset="1" stop-color="white"></stop>
</linearGradient>
<linearGradient id="paint10_linear_5018_7151" x1="34.9719" y1="15.3109" x2="22.5168" y2="15.3109" gradientUnits="userSpaceOnUse">
<stop stop-color="#2E3A5E"></stop>
<stop offset="1" stop-color="#13192A"></stop>
</linearGradient>
<linearGradient id="paint11_linear_5018_7151" x1="26.2329" y1="7.65903" x2="26.2329" y2="22.9627" gradientUnits="userSpaceOnUse">
<stop stop-color="#2E4077"></stop>
<stop offset="1" stop-color="#5A6FA9"></stop>
</linearGradient>
<linearGradient id="paint12_linear_5018_7151" x1="26.2329" y1="7.65903" x2="26.2329" y2="22.9627" gradientUnits="userSpaceOnUse">
<stop stop-color="#91A5DF"></stop>
<stop offset="1" stop-color="white"></stop>
</linearGradient>
<linearGradient id="paint13_linear_5018_7151" x1="152.659" y1="0" x2="152.659" y2="30" gradientUnits="userSpaceOnUse">
<stop stop-color="#2E4077"></stop>
<stop offset="1" stop-color="#5A6FA9"></stop>
</linearGradient>
<linearGradient id="paint14_linear_5018_7151" x1="152.659" y1="0" x2="152.659" y2="30" gradientUnits="userSpaceOnUse">
<stop stop-color="#91A5DF"></stop>
<stop offset="1" stop-color="white"></stop>
</linearGradient>
</defs>
</svg>