<svg xmlns="http://www.w3.org/2000/svg" id="Capa_2" viewBox="0 0 300.77 74.03"><defs><style>.cls-1{fill:#84224f;}</style></defs><g id="Capa_1-2"><path class="cls-1" d="m125.29,40.38h8.45l4.5,12.22c.55,1.65,1.01,3.49,1.56,5.24h.18c.55-1.75,1.01-3.58,1.56-5.24l4.32-12.22h8.45v29.85h-7.16v-8.82c0-3.03.64-8.54,1.01-11.57h-.18l-2.48,8.08-3.67,9.87h-4.23l-3.67-9.87-2.39-8.08h-.18c.37,3.03,1.01,8.54,1.01,11.57v8.82h-7.07v-29.85Z"></path><path class="cls-1" d="m159.09,58.75c0-7.44,5.42-12.03,11.02-12.03,6.8,0,10.01,4.96,10.01,11.11,0,1.38-.18,2.76-.32,3.31h-13.09c.73,2.76,2.76,3.67,5.33,3.67,1.56,0,3.12-.46,4.78-1.38l2.48,4.69c-2.48,1.75-5.79,2.66-8.36,2.66-6.71,0-11.85-4.41-11.85-12.03Zm14.33-2.76c0-1.75-.74-3.31-3.12-3.31-1.75,0-3.22,1.01-3.67,3.31h6.8Z"></path><path class="cls-1" d="m183.43,58.75c0-7.53,4.68-12.03,9.37-12.03,2.48,0,3.95.92,5.33,2.3l-.28-3.31v-7.44h7.9v31.97h-6.43l-.55-2.11h-.18c-1.56,1.56-3.77,2.66-5.79,2.66-5.69,0-9.37-4.59-9.37-12.03Zm14.42,3.95v-8.45c-.92-.83-2.11-1.1-3.12-1.1-1.65,0-3.21,1.47-3.21,5.51s1.29,5.69,3.4,5.69c1.19,0,2.11-.37,2.94-1.65Z"></path><path class="cls-1" d="m217.41,46.99h-7.9v-6.61h23.7v6.61h-7.9v23.24h-7.9v-23.24Z"></path><path class="cls-1" d="m232.11,58.75c0-7.44,5.42-12.03,11.02-12.03,6.8,0,10.01,4.96,10.01,11.11,0,1.38-.18,2.76-.32,3.31h-13.09c.73,2.76,2.76,3.67,5.33,3.67,1.56,0,3.12-.46,4.78-1.38l2.48,4.69c-2.48,1.75-5.79,2.66-8.36,2.66-6.71,0-11.85-4.41-11.85-12.03Zm14.33-2.76c0-1.75-.73-3.31-3.12-3.31-1.75,0-3.22,1.01-3.67,3.31h6.8Z"></path><path class="cls-1" d="m256.26,58.75c0-7.62,5.79-12.03,12.31-12.03,2.76,0,4.96.92,6.71,2.39l-3.67,4.87c-1.01-.73-1.75-.92-2.57-.92-2.94,0-4.68,2.2-4.68,5.7s1.93,5.69,4.41,5.69c1.38,0,2.57-.46,3.67-1.29l3.03,4.96c-2.3,2.02-5.24,2.66-7.62,2.66-6.52,0-11.57-4.41-11.57-12.03Z"></path><path class="cls-1" d="m279.14,38.26h7.9v7.44l-.37,3.95c1.56-1.38,3.77-2.94,6.89-2.94,5.05,0,7.16,3.67,7.16,9.37v14.15h-7.9v-13.14c0-2.94-.73-3.67-2.3-3.67-1.47,0-2.3.64-3.49,1.75v15.06h-7.9v-31.97Z"></path><path class="cls-1" d="m112.65,62.48c-1.15-.68-2.64-.3-3.32.86-.44.74-.43,1.62-.06,2.34l-2.93,4.97c-.3.51-.81.8-1.41.8h0c-.59,0-1.11-.29-1.41-.8l-19.92-33.62,6.03-10.25c.8-.03,1.58-.44,2.02-1.19.68-1.15.29-2.64-.86-3.32s-2.64-.29-3.32.86c-.44.74-.43,1.62-.06,2.34l-5.3,9.03L63.57,3.2c-.75-1.28-2.14-2.07-3.63-2.07H23.44c-.43-.68-1.18-1.14-2.05-1.14-1.34,0-2.43,1.09-2.43,2.43s1.09,2.43,2.43,2.43c.86,0,1.62-.46,2.05-1.14h36.51c.57,0,1.11.31,1.41.8l19.26,32.51-19.26,32.78c-.29.5-.83.81-1.41.81H23.05c-.57,0-1.11-.31-1.41-.8L2.81,38.11c-.3-.51-.31-1.15,0-1.67L14.88,15.93c.8-.03,1.58-.44,2.02-1.19.68-1.15.29-2.64-.86-3.32s-2.64-.29-3.32.86c-.44.74-.43,1.62-.06,2.34L.58,35.14c-.78,1.32-.78,2.97,0,4.29l18.84,31.71c.76,1.27,2.14,2.06,3.62,2.06h36.89c1.49,0,2.88-.8,3.63-2.08l18.54-31.55,19.19,32.39c.77,1.29,2.12,2.07,3.63,2.07h0c1.51,0,2.86-.78,3.63-2.07l2.93-4.97c.8-.02,1.58-.44,2.02-1.19.68-1.15.3-2.64-.86-3.32Z"></path><path class="cls-1" d="m74.35,37.42c1.15-.69,1.52-2.18.83-3.33-.44-.74-1.22-1.15-2.03-1.17l-13.76-22.94c-.76-1.26-2.14-2.05-3.62-2.05h-7.27c-.43-.68-1.18-1.14-2.05-1.14-1.34,0-2.43,1.09-2.43,2.43s1.09,2.43,2.43,2.43c.86,0,1.62-.46,2.05-1.14h7.27c.57,0,1.11.3,1.4.79l13.76,22.94c-.36.72-.36,1.6.08,2.34.69,1.15,2.18,1.52,3.33.83Z"></path><path class="cls-1" d="m25.3,11.31c.29-.49.83-.8,1.41-.8h3.61c.43.68,1.18,1.14,2.05,1.14,1.34,0,2.43-1.09,2.43-2.43s-1.09-2.43-2.43-2.43c-.86,0-1.62.46-2.05,1.14h-3.61c-1.48,0-2.86.79-3.62,2.06l-14.94,25.05c-.79,1.33-.79,2.98,0,4.31l15.08,25.5c.76,1.28,2.15,2.07,3.63,2.07h15.51c.43.68,1.18,1.13,2.05,1.13,1.34,0,2.43-1.09,2.43-2.43s-1.09-2.43-2.43-2.43c-.86,0-1.62.46-2.05,1.14h-15.51c-.58,0-1.11-.31-1.41-.8l-15.08-25.5c-.31-.52-.3-1.16,0-1.67l14.94-25.05Z"></path><path class="cls-1" d="m71.01,47.56c.69-1.15.32-2.64-.83-3.33-1.15-.69-2.64-.32-3.33.83-.44.74-.44,1.62-.08,2.34l-8.86,14.77c-.8.02-1.58.43-2.03,1.17-.69,1.15-.32,2.64.83,3.33,1.15.69,2.64.32,3.33-.83.44-.74.44-1.62.08-2.34l8.86-14.77c.8-.02,1.58-.43,2.03-1.17Z"></path><path class="cls-1" d="m109.37,8.56l-8.9,21.09h5.63l1.79-4.46h7.59l1.79,4.46h5.75l-8.9-21.09h-4.76Zm4.11,11.67h-3.59l1.79-4.39,1.79,4.39Z"></path><path class="cls-1" d="m141.35,18.8c-.62-.55-1.36-.99-2.14-1.29-.87-.37-1.79-.67-2.71-.92l-2.12-.6c-.41-.11-.83-.3-1.2-.53-.16-.09-.32-.21-.44-.37-.09-.18-.14-.39-.11-.6,0-.3.14-.6.39-.78.46-.3,1.01-.44,1.56-.39.8,0,1.59.16,2.32.46.87.37,1.72.85,2.48,1.4l.46.34,2.85-4.18-.37-.32c-2.05-1.93-4.85-2.85-7.66-2.55-.99,0-1.98.14-2.92.44-.87.23-1.68.64-2.41,1.19-1.42,1.26-2.21,3.1-2.11,5.01-.05.94.14,1.86.51,2.71.32.73.83,1.4,1.47,1.88.67.51,1.43.92,2.21,1.22.8.3,1.7.57,2.78.85.67.14,1.33.34,1.98.57.39.11.76.3,1.1.51.14.07.25.18.34.32.07.18.11.37.11.55.02.34-.16.69-.44.87-.55.3-1.2.46-1.84.41-.99.02-1.98-.18-2.87-.6-.97-.44-1.84-.99-2.64-1.68l-.41-.34-3.29,3.79.39.37c1.2,1.1,2.6,1.98,4.14,2.53,1.47.53,3.03.8,4.6.8v-.11c1.03.02,2.07-.14,3.03-.44.9-.25,1.75-.69,2.48-1.29.69-.57,1.24-1.31,1.63-2.14.39-.9.6-1.84.57-2.83.02-.85-.11-1.7-.46-2.46-.3-.71-.76-1.33-1.36-1.84"></path><path class="cls-1" d="m160.98,9.2c-1.08-.37-2.21-.55-3.33-.53h-8.6v20.97h5.45v-5.93h2.9c1.06,0,2.09-.16,3.1-.46,1.01-.28,1.93-.76,2.74-1.42.78-.64,1.43-1.45,1.86-2.37.44-1.01.67-2.09.67-3.17.05-1.1-.16-2.18-.57-3.19-.76-1.86-2.3-3.29-4.21-3.91m-.74,7.08c.02.64-.23,1.26-.71,1.7-.6.51-1.36.76-2.11.69l-2.9-.02v-4.82h2.8c.78-.05,1.56.18,2.21.64.48.44.76,1.1.71,1.81"></path><polygon class="cls-1" points="183.33 16.53 176.48 16.53 176.48 8.67 171.01 8.67 171.01 29.65 176.48 29.65 176.48 21.68 183.33 21.68 183.33 29.65 188.8 29.65 188.8 8.67 183.33 8.67 183.33 16.53"></polygon><path class="cls-1" d="m203.07,8.56l-8.85,21.09h5.59l1.79-4.46h7.56l1.84,4.46h5.72l-8.92-21.09h-4.74Zm4.11,11.67h-3.59l1.79-4.39,1.79,4.39Z"></path><polygon class="cls-1" points="227.01 8.67 221.56 8.67 221.56 29.65 236.82 29.65 236.82 24.59 227.01 24.59 227.01 8.67"></polygon><rect class="cls-1" x="242.34" y="8.67" width="5.45" height="20.95"></rect><path class="cls-1" d="m272.87,11.57c-1.01-.99-2.18-1.77-3.49-2.32-2.83-1.13-5.98-1.13-8.83,0-1.31.53-2.53,1.33-3.52,2.34-4.16,4.23-4.16,11,0,15.23,1.01.99,2.21,1.77,3.52,2.32,1.36.55,2.8.85,4.25.85h.14v-.55h.02v.55c1.52.02,3.01-.28,4.41-.85,1.31-.53,2.53-1.33,3.52-2.34.97-.99,1.75-2.14,2.3-3.42,1.13-2.71,1.13-5.79,0-8.5-.53-1.24-1.33-2.39-2.32-3.31m-13.29,7.6c0-.76.14-1.49.41-2.18.25-.67.64-1.26,1.1-1.79.46-.51,1.03-.92,1.68-1.19,1.38-.62,2.97-.62,4.34,0,.64.28,1.22.71,1.7,1.24.48.51.87,1.13,1.13,1.77.28.71.41,1.47.41,2.23s-.14,1.49-.41,2.18c-.25.67-.62,1.26-1.1,1.79-.46.53-1.01.92-1.66,1.19-.69.32-1.43.46-2.18.46-1.45,0-2.85-.6-3.86-1.65-1.03-1.13-1.59-2.57-1.56-4.04"></path><polygon class="cls-1" points="295.37 8.67 295.37 19.79 286.98 8.67 282.13 8.67 282.13 29.65 287.56 29.65 287.56 18.16 296.25 29.65 300.77 29.65 300.77 8.67 295.37 8.67"></polygon></g></svg>