<svg viewBox="0 0 200 200" xmlns="http://www.w3.org/2000/svg">
  <!-- Background -->
  <rect width="200" height="200" fill="#f0f9f6"/>

  <!-- Health Connect - Heart + Pulse line -->
  <!-- Heart shape -->
  <path d="M 100 140 C 70 110 50 90 50 70 C 50 55 60 45 70 45 C 80 45 90 55 100 65 C 110 55 120 45 130 45 C 140 45 150 55 150 70 C 150 90 130 110 100 140" fill="none" stroke="#10b981" stroke-width="3" stroke-linejoin="round"/>

  <!-- Pulse line through heart -->
  <line x1="30" y1="110" x2="60" y2="110" stroke="#10b981" stroke-width="2"/>
  <polyline points="60,110 75,100 85,120 95,100 100,110" stroke="#10b981" stroke-width="2" fill="none" stroke-linejoin="round"/>
  <line x1="100" y1="110" x2="170" y2="110" stroke="#10b981" stroke-width="2"/>

  <!-- Company name -->
  <text x="100" y="175" font-size="16" font-weight="bold" text-anchor="middle" fill="#10b981">HealthConnect</text>
</svg>
